<?xml version="1.0" standalone="no"?>
<!DOCTYPE svg PUBLIC "-//W3C//DTD SVG 20010904//EN"
 "http://www.w3.org/TR/2001/REC-SVG-20010904/DTD/svg10.dtd">
<svg version="1.0" xmlns="http://www.w3.org/2000/svg"
 width="280.000000pt" height="327.000000pt" viewBox="0 0 280.000000 327.000000"
 preserveAspectRatio="xMidYMid meet">

<g transform="translate(0.000000,327.000000) scale(0.100000,-0.100000)"
fill="#000000" stroke="none">
<path d="M1380 3035 c7 -8 16 -12 21 -9 13 8 1 24 -18 24 -13 0 -13 -3 -3 -15z"/>
<path d="M1247 3033 c-12 -11 35 -82 50 -76 8 3 10 9 5 12 -5 3 -18 21 -29 38
-11 18 -23 30 -26 26z"/>
<path d="M1307 3028 c-5 -15 10 -48 21 -48 19 1 42 29 36 44 -7 19 -50 22 -57
4z m40 -24 c-9 -9 -28 6 -21 18 4 6 10 6 17 -1 6 -6 8 -13 4 -17z"/>
<path d="M1586 2971 l-75 -58 86 -18 c48 -9 111 -26 141 -37 l54 -20 63 43 64
43 -37 21 c-45 26 -100 48 -169 68 l-52 16 -75 -58z"/>
<path d="M1204 2965 c-9 -23 3 -45 25 -45 25 0 34 14 26 40 -7 23 -43 27 -51
5z m36 -22 c0 -13 -3 -13 -15 -3 -8 7 -12 16 -9 21 8 13 24 1 24 -18z"/>
<path d="M1107 2953 c-3 -5 3 -24 13 -41 29 -48 80 -41 65 9 -5 16 -13 20 -31
16 -15 -3 -28 1 -33 11 -4 8 -11 10 -14 5z m63 -48 c0 -8 -4 -15 -9 -15 -5 0
-11 7 -15 15 -3 9 0 15 9 15 8 0 15 -7 15 -15z"/>
<path d="M2054 2929 c-9 -15 12 -17 30 -4 17 13 17 14 -4 12 -12 -1 -24 -5
-26 -8z"/>
<path d="M1077 2899 c-14 -8 -16 -14 -6 -25 13 -15 34 -20 24 -5 -3 5 -1 12 5
16 12 7 14 25 3 25 -5 0 -16 -5 -26 -11z"/>
<path d="M2028 2902 c-10 -2 -18 -8 -18 -13 0 -13 27 -11 35 2 9 13 4 16 -17
11z"/>
<path d="M1037 2873 c-7 -11 10 -40 18 -31 4 4 3 14 -3 24 -5 9 -12 12 -15 7z"/>
<path d="M1976 2871 c-4 -5 -2 -12 4 -16 15 -9 12 -25 -5 -25 -8 0 -15 5 -15
10 0 6 -7 10 -15 10 -13 0 -13 -3 -3 -20 16 -25 30 -25 51 -2 13 14 13 20 2
35 -7 10 -16 14 -19 8z"/>
<path d="M996 2852 c-3 -5 1 -15 9 -22 16 -14 20 -3 6 19 -5 8 -11 9 -15 3z"/>
<path d="M938 2844 c-10 -10 4 -44 18 -44 8 0 14 2 14 4 0 2 3 13 7 23 3 10 3
15 -2 11 -4 -4 -13 -3 -20 2 -7 5 -14 7 -17 4z"/>
<path d="M1880 2832 c0 -34 50 -66 65 -42 3 6 -1 7 -9 4 -16 -6 -21 5 -17 35
2 7 -2 10 -8 6 -6 -3 -11 -1 -11 4 0 6 -4 11 -10 11 -5 0 -10 -8 -10 -18z"/>
<path d="M2111 2690 l-45 -39 41 -44 c23 -25 58 -70 79 -101 21 -32 43 -55 50
-52 6 2 14 -4 17 -15 4 -15 12 -20 29 -17 29 4 34 30 11 53 -16 17 -16 18 7
37 23 19 24 20 7 51 -27 49 -121 162 -137 164 -8 1 -35 -15 -59 -37z m179
-247 c0 -13 -3 -13 -15 -3 -8 7 -12 16 -9 21 8 13 24 1 24 -18z"/>
<path d="M590 2600 c-8 -5 -10 -10 -5 -10 6 0 17 5 25 10 8 5 11 10 5 10 -5 0
-17 -5 -25 -10z"/>
<path d="M616 2585 c-11 -8 -16 -15 -10 -15 5 0 18 7 28 15 11 8 16 15 10 15
-5 0 -18 -7 -28 -15z"/>
<path d="M1135 2579 c-46 -26 -59 -77 -28 -111 15 -17 14 -18 -43 -18 -66 0
-126 -23 -161 -61 -33 -36 -63 -113 -68 -172 l-4 -52 8 46 c5 26 14 57 21 70
18 35 71 88 104 106 27 14 28 14 21 -3 -12 -32 -18 -91 -11 -127 9 -48 73
-118 135 -146 l50 -24 -48 -23 c-66 -30 -127 -87 -164 -152 -24 -44 -32 -51
-39 -38 -18 33 -50 133 -64 201 l-14 70 4 -71 c3 -48 16 -100 38 -161 l34 -90
-28 -134 c-15 -74 -28 -140 -28 -148 0 -7 25 10 56 38 72 66 229 143 349 172
161 38 282 16 353 -65 l30 -35 -20 -40 c-12 -25 -17 -48 -13 -59 6 -13 9 -10
15 16 15 65 87 111 173 112 86 0 143 -39 167 -113 15 -47 25 -41 16 8 -20 103
-176 156 -290 98 -28 -15 -30 -14 -60 20 -17 20 -49 46 -71 60 -41 24 -47 27
-66 27 -6 0 -8 9 -3 22 6 19 5 21 -8 11 -16 -14 -28 -8 -28 15 0 8 6 12 14 9
10 -4 13 -1 10 8 -3 8 -12 11 -20 8 -9 -3 -14 1 -14 12 0 11 5 15 16 11 8 -3
12 -2 9 4 -3 6 -15 10 -26 10 -21 0 -27 30 -6 31 6 0 2 4 -11 9 -20 8 -21 12
-10 30 11 18 10 23 -4 34 -10 7 -14 17 -10 22 4 4 0 3 -10 -4 -12 -10 -18 -10
-23 -1 -4 6 -3 14 3 18 7 4 8 12 2 21 -8 13 -10 12 -10 -2 0 -18 -11 -23 -23
-11 -4 3 -2 12 4 20 9 9 8 13 0 13 -6 0 -11 5 -11 10 0 6 4 10 10 10 28 0 122
45 158 76 29 24 43 31 46 22 32 -113 67 -168 124 -199 19 -9 42 -25 52 -34 10
-9 21 -12 24 -7 7 11 151 -11 199 -31 19 -9 40 -25 47 -36 6 -12 15 -21 21
-21 12 0 -9 41 -30 57 -9 7 -41 20 -71 29 -30 9 -60 24 -67 33 -9 13 -27 15
-82 14 l-71 -3 -49 48 c-67 65 -96 160 -70 229 21 57 4 92 -96 189 -51 50
-111 99 -132 110 -45 21 -177 30 -208 13z m192 -29 c61 -27 210 -173 224 -221
34 -112 -127 -229 -317 -229 -76 0 -170 43 -212 98 -23 30 -27 45 -27 102 0
46 5 74 18 93 l17 27 150 0 150 0 0 -31 c0 -22 5 -32 20 -36 15 -4 20 -14 20
-39 0 -19 5 -34 10 -34 6 0 10 4 10 9 0 5 7 17 16 26 12 12 19 13 30 4 31 -26
13 54 -24 101 -2 3 -8 -3 -13 -13 -13 -23 -29 -22 -29 2 0 38 -28 53 -91 49
l-58 -3 6 37 c3 24 1 43 -7 53 -19 23 -33 18 -26 -9 10 -40 -4 -86 -26 -86
-18 0 -67 46 -68 63 0 4 11 19 24 32 20 20 33 24 92 24 45 0 83 -7 111 -19z
m93 -172 c0 -18 -2 -20 -9 -8 -6 8 -7 18 -5 22 9 14 14 9 14 -14z m-99 -311
c-1 -12 -15 -9 -19 4 -3 6 1 10 8 8 6 -3 11 -8 11 -12z m-29 -22 c48 -32 92
-98 123 -180 14 -36 25 -67 25 -69 0 -2 -33 -6 -72 -9 -139 -12 -286 -65 -413
-148 -41 -27 -75 -44 -75 -39 0 39 54 249 74 287 74 146 241 224 338 158z
m118 -65 c0 -5 -7 -10 -15 -10 -8 0 -15 5 -15 10 0 6 7 10 15 10 8 0 15 -4 15
-10z m370 0 c0 -5 -4 -10 -10 -10 -5 0 -10 5 -10 10 0 6 5 10 10 10 6 0 10 -4
10 -10z m30 0 c0 -5 -4 -10 -10 -10 -5 0 -10 5 -10 10 0 6 5 10 10 10 6 0 10
-4 10 -10z m30 -10 c0 -5 -4 -10 -10 -10 -5 0 -10 5 -10 10 0 6 5 10 10 10 6
0 10 -4 10 -10z"/>
<path d="M1152 2498 c-1 -30 2 -38 8 -28 12 19 13 57 1 64 -5 3 -9 -13 -9 -36z"/>
<path d="M1300 2350 c0 -11 2 -20 4 -20 2 0 6 9 9 20 3 11 1 20 -4 20 -5 0 -9
-9 -9 -20z"/>
<path d="M1095 2327 c-22 -54 -18 -167 7 -167 5 0 4 8 -2 19 -15 28 -12 96 5
138 8 20 13 38 10 41 -2 3 -12 -11 -20 -31z"/>
<path d="M1147 2273 c-3 -32 -8 -69 -12 -83 l-7 -25 21 23 c24 27 36 81 27
117 -11 42 -23 28 -29 -32z"/>
<path d="M507 2554 c-11 -12 -8 -41 6 -53 19 -15 50 9 45 35 -3 19 -38 31 -51
18z m30 -30 c-9 -9 -28 6 -21 18 4 6 10 6 17 -1 6 -6 8 -13 4 -17z"/>
<path d="M605 2550 c-3 -6 1 -7 9 -4 18 7 21 14 7 14 -6 0 -13 -4 -16 -10z"/>
<path d="M448 2519 c-10 -5 -18 -17 -18 -25 0 -12 4 -12 25 3 37 27 31 45 -7
22z"/>
<path d="M2316 2502 c-3 -5 2 -19 11 -31 12 -18 18 -20 27 -11 8 9 8 14 -1 17
-7 3 -13 11 -13 19 0 15 -16 19 -24 6z"/>
<path d="M471 2478 c-11 -18 -11 -20 3 -15 10 4 16 1 16 -8 0 -8 -4 -15 -10
-15 -5 0 -10 -5 -10 -10 0 -6 8 -5 20 2 23 15 26 40 7 56 -10 8 -16 6 -26 -10z"/>
<path d="M2358 2433 c7 -3 16 -2 19 1 4 3 -2 6 -13 5 -11 0 -14 -3 -6 -6z"/>
<path d="M2422 2305 c0 -11 3 -29 8 -40 11 -25 11 1 0 35 -6 20 -8 21 -8 5z"/>
<path d="M426 2068 l-79 -61 7 -68 c8 -87 14 -101 40 -97 25 4 35 46 14 59
-11 7 -10 11 1 18 11 7 18 4 26 -12 7 -13 20 -22 33 -21 25 1 28 -6 10 -25
-11 -11 -9 -11 10 -2 25 13 23 36 -4 75 -11 17 -11 22 0 35 12 14 34 161 25
161 -2 0 -39 -28 -83 -62z m48 -154 c4 -10 1 -14 -6 -12 -15 5 -23 28 -10 28
5 0 13 -7 16 -16z m-74 -45 c0 -5 -4 -9 -10 -9 -5 0 -10 7 -10 16 0 8 5 12 10
9 6 -3 10 -10 10 -16z"/>
<path d="M2408 1974 c-29 -26 -57 -50 -61 -54 -4 -4 -13 -37 -18 -75 -6 -37
-20 -92 -30 -123 -10 -30 -17 -57 -15 -60 3 -2 39 26 81 62 42 37 80 64 84 61
9 -5 15 34 27 163 4 49 3 72 -4 72 -6 0 -35 -21 -64 -46z"/>
<path d="M1687 1930 c-3 -12 0 -17 8 -14 7 3 15 -3 18 -13 5 -17 5 -17 6 0 0
10 -5 25 -13 32 -12 12 -15 12 -19 -5z"/>
<path d="M1687 1880 c3 -11 0 -20 -6 -20 -6 0 -11 8 -12 18 0 14 -2 14 -8 -3
-5 -11 -18 -28 -29 -38 -12 -11 -18 -26 -15 -38 3 -10 1 -19 -5 -19 -6 0 -12
8 -14 18 -2 10 -6 13 -10 7 -4 -6 -3 -17 2 -25 7 -12 12 -12 35 0 22 12 23 15
10 23 -8 4 -13 13 -9 18 4 6 10 6 19 -1 10 -8 18 -4 34 19 23 32 26 47 12 55
-5 4 -7 -3 -4 -14z m-17 -38 c0 -13 -12 -22 -22 -16 -10 6 -1 24 13 24 5 0 9
-4 9 -8z"/>
<path d="M1533 1793 c9 -2 17 -8 17 -13 0 -4 7 -11 16 -14 13 -5 14 -4 6 7 -7
8 -10 16 -7 18 2 3 -8 5 -23 6 -15 0 -19 -1 -9 -4z"/>
<path d="M2436 1743 c-4 -16 -9 -37 -13 -48 -3 -14 -2 -17 5 -10 11 11 28 85
19 85 -3 0 -8 -12 -11 -27z"/>
<path d="M1005 1600 c-34 -11 -93 -55 -84 -64 3 -3 22 7 43 22 54 38 128 38
179 -1 20 -15 38 -23 42 -17 9 15 -70 61 -112 65 -21 3 -51 0 -68 -5z"/>
<path d="M2366 1544 c-94 -204 -310 -416 -519 -509 -104 -46 -366 -109 -383
-92 -3 2 34 37 81 76 47 40 85 73 85 75 0 2 -19 0 -42 -4 -24 -4 -82 -11 -129
-15 l-86 -7 -64 -58 c-35 -32 -60 -62 -56 -66 13 -14 295 -10 362 4 268 58
494 200 648 407 57 77 143 232 134 242 -3 2 -17 -22 -31 -53z"/>
<path d="M620 1473 c-34 -22 -80 -65 -80 -74 0 -12 99 -128 145 -172 l40 -37
-50 -48 c-28 -26 -72 -67 -98 -90 -31 -28 -46 -49 -43 -59 6 -16 7 -15 150
111 55 49 71 58 84 49 14 -8 28 -1 72 38 l55 49 -35 27 c-48 36 -167 160 -188
195 -19 33 -20 33 -52 11z"/>
<path d="M1000 1131 c14 -27 23 -31 49 -24 24 6 25 33 2 41 -8 3 -11 0 -7 -6
10 -17 -11 -23 -24 -7 -18 22 -33 18 -20 -4z"/>
<path d="M933 1128 c3 -19 39 -58 53 -58 6 0 14 7 17 14 4 10 1 13 -8 9 -9 -3
-18 3 -22 13 -10 29 -46 48 -40 22z"/>
<path d="M997 1019 c7 -7 15 -10 18 -7 3 3 -2 9 -12 12 -14 6 -15 5 -6 -5z"/>
<path d="M1905 647 c-53 -25 -70 -53 -70 -114 0 -76 32 -104 146 -129 98 -21
129 -45 129 -98 0 -49 -8 -65 -44 -83 -40 -21 -139 -21 -190 1 -31 13 -41 14
-48 4 -26 -41 25 -63 149 -63 77 0 96 3 119 21 49 36 69 72 68 119 -2 79 -50
124 -157 145 -34 6 -74 18 -88 26 -44 22 -51 65 -19 107 29 36 78 44 152 23
60 -17 78 -15 78 8 0 35 -167 59 -225 33z"/>
<path d="M275 618 c-7 -18 -54 -126 -103 -240 l-91 -208 29 0 c25 0 30 7 60
80 l32 80 118 0 118 0 33 -80 c31 -73 36 -80 62 -80 16 0 27 4 25 9 -1 5 -48
113 -103 240 l-100 231 -33 0 c-28 0 -35 -5 -47 -32z m98 -131 l45 -107 -94 0
c-52 0 -94 4 -94 8 0 9 64 162 81 193 6 11 12 19 14 17 3 -2 24 -52 48 -111z"/>
<path d="M750 410 l0 -240 30 0 30 0 0 105 0 105 68 0 67 -1 65 -104 c61 -99
66 -105 97 -105 l33 0 -71 107 c-66 98 -71 108 -54 117 10 6 35 25 54 43 31
27 36 38 36 76 0 59 -20 93 -70 117 -34 17 -62 20 -163 20 l-122 0 0 -240z
m222 194 c51 -9 78 -37 78 -80 0 -74 -35 -94 -161 -94 l-79 0 0 90 0 90 63 0
c34 0 79 -3 99 -6z"/>
<path d="M1290 630 c0 -18 7 -20 75 -20 l75 0 0 -220 0 -220 25 0 25 0 0 220
0 220 75 0 c68 0 75 2 75 20 0 19 -7 20 -175 20 -168 0 -175 -1 -175 -20z"/>
<path d="M2316 638 c4 -7 45 -73 91 -145 l83 -133 0 -95 0 -95 30 0 30 0 0 96
0 97 73 116 c40 64 81 128 91 144 l18 27 -30 0 c-28 0 -36 -9 -104 -120 -40
-66 -75 -120 -78 -120 -3 0 -38 54 -79 120 -67 109 -77 120 -103 120 -21 0
-27 -4 -22 -12z"/>
</g>
</svg>
